<svg width="150" height="44" viewBox="0 0 150 44" fill="none" xmlns="http://www.w3.org/2000/svg">
<g clip-path="url(#clip0_5_29)">
<path d="M0 19.9077C0.0147493 19.8453 0.0368732 19.7837 0.0424041 19.7213C0.0884956 19.1877 0.121681 18.6531 0.176069 18.1204C0.339233 16.5213 0.706121 14.9682 1.2583 13.4592C3.57209 7.13555 8.90302 2.37331 15.4664 0.768748C16.722 0.461981 17.9959 0.281962 19.2874 0.212158C20.306 0.15705 21.3228 0.17542 22.3359 0.279206C26.2491 0.679657 29.7631 2.08215 32.8319 4.53262C36.6233 7.55988 39.0284 11.4588 40.0664 16.1861C40.4628 17.9891 40.5983 19.8177 40.4674 21.6574C40.118 26.5822 38.196 30.8182 34.7437 34.3534C32.1368 37.0233 29.0072 38.829 25.389 39.7861C24.1464 40.1149 22.8835 40.328 21.5994 40.3932C15.7587 40.6908 10.6619 38.8979 6.39288 34.9118C3.23931 31.9681 1.2712 28.342 0.416667 24.1216C0.237832 23.2362 0.129056 22.3407 0.0820428 21.4379C0.0709808 21.2055 0.0285767 20.975 0 20.7444C0 20.4652 0 20.1869 0 19.9077ZM39.7474 22.2985H39.3833C28.3877 22.2985 17.3931 22.2985 6.39749 22.2985C6.10988 22.2985 5.82227 22.3086 5.53466 22.3077C5.40284 22.3077 5.26917 22.2994 5.13827 22.2783C5 22.2562 4.82946 22.0698 4.83223 21.9642C4.83407 21.8604 4.99078 21.7281 5.15302 21.7079C5.2913 21.6905 5.43234 21.685 5.57246 21.6813C5.69045 21.6776 5.80844 21.685 5.92644 21.685C17.099 21.685 28.2706 21.685 39.4432 21.685C39.5022 21.685 39.5612 21.6877 39.6202 21.685C39.6764 21.6822 39.7327 21.673 39.8073 21.6648C39.8221 21.3855 39.8359 21.1173 39.8507 20.8271C39.7124 20.8143 39.5898 20.7959 39.4672 20.7931C38.7887 20.7766 38.1112 20.7573 37.4327 20.7509C35.2867 20.7316 33.1416 20.7077 30.9956 20.7031C26.4454 20.693 21.8962 20.6884 17.3461 20.693C13.2384 20.6976 9.13164 20.7141 5.02397 20.7325C3.68916 20.738 2.35527 20.7665 1.02046 20.7858C0.942109 20.7867 0.864676 20.7986 0.777102 20.8069C0.770649 20.8923 0.762353 20.9566 0.761431 21.0209C0.749447 22.3114 0.901549 23.5843 1.20944 24.8362C2.12205 28.5532 3.95557 31.7568 6.73396 34.3956C10.3899 37.8683 14.7935 39.607 19.8221 39.8081C21.4196 39.8724 23.0024 39.6997 24.5603 39.3369C28.3296 38.458 31.5846 36.6605 34.2911 33.8969C35.0452 33.1272 35.707 32.2831 36.2675 31.3628C36.3108 31.2921 36.3459 31.2168 36.3975 31.1185C36.2832 31.113 36.2113 31.1075 36.1385 31.1075C34.3317 31.1029 32.5249 31.0992 30.7181 31.0956C28.9629 31.0919 27.2078 31.09 25.4526 31.0845C25.2987 31.0845 25.1438 31.0671 24.9908 31.0469C24.8571 31.0294 24.7502 30.9367 24.7382 30.8356C24.7234 30.7153 24.7824 30.6161 24.8719 30.5491C24.9263 30.5087 25.0074 30.4921 25.0784 30.4866C25.2323 30.4738 25.3872 30.4701 25.542 30.4701C29.104 30.4728 32.6659 30.4765 36.227 30.4783C36.403 30.4783 36.58 30.4609 36.7542 30.4361C36.9275 30.4113 37.0769 30.3286 37.1792 30.1835C37.3525 29.9355 37.4051 29.6499 37.4493 29.3312H37.1423C32.3341 29.3312 27.5258 29.3312 22.7176 29.3312C22.5922 29.3312 22.4668 29.333 22.3414 29.3257C22.2539 29.3211 22.1654 29.3082 22.0796 29.288C21.9552 29.2586 21.8473 29.1401 21.84 29.0299C21.8326 28.9032 21.9146 28.826 22.0124 28.7691C22.0612 28.7406 22.1221 28.725 22.1792 28.7195C22.2815 28.7094 22.3857 28.7094 22.488 28.7094C25.6739 28.7094 28.8597 28.7075 32.0455 28.7094C33.7859 28.7103 35.5264 28.7186 37.2668 28.7232C37.3626 28.7232 37.4594 28.7278 37.5535 28.714C37.7286 28.6873 37.9139 28.657 38.0181 28.4945C38.1978 28.2152 38.2808 27.8965 38.4006 27.5585C38.2789 27.5585 38.1914 27.5585 38.1047 27.5585C36.6962 27.5604 35.2876 27.5622 33.8791 27.5631C31.1136 27.565 28.3481 27.5659 25.5826 27.5668C23.9159 27.5668 22.2493 27.5686 20.5826 27.5696C19.9189 27.5696 19.2552 27.5732 18.5914 27.5714C18.4596 27.5714 18.325 27.5641 18.1969 27.5374C18.0494 27.5071 17.9452 27.3804 17.948 27.2665C17.9508 27.1507 18.0568 27.0249 18.2006 26.9974C18.337 26.9716 18.4781 26.9597 18.6173 26.9579C19.281 26.9524 19.9447 26.9533 20.6084 26.9524C22.9978 26.9478 25.3872 26.9423 27.7756 26.9377C29.2137 26.9349 30.6517 26.9303 32.0898 26.9285C34.0809 26.9257 36.0721 26.9248 38.0632 26.922C38.196 26.922 38.3287 26.9202 38.4615 26.911C38.5933 26.9018 38.703 26.8467 38.7629 26.72C38.8938 26.438 38.9657 26.1441 38.9546 25.8079C38.8588 25.8079 38.7712 25.8079 38.6845 25.8079C30.7421 25.8079 22.8005 25.8061 14.858 25.8052C14.6442 25.8052 14.4303 25.8107 14.2164 25.8034C14.1215 25.8006 14.0247 25.7859 13.9353 25.7556C13.8164 25.7161 13.6919 25.5416 13.714 25.4525C13.7454 25.3276 13.8422 25.2596 13.962 25.2266C14.0183 25.2109 14.0772 25.2027 14.1362 25.199C14.2321 25.1926 14.328 25.1907 14.4239 25.1907C15.5448 25.188 16.6657 25.1852 17.7867 25.1852C20.2793 25.1852 22.7719 25.1852 25.2646 25.1852C29.5861 25.1852 33.9076 25.1861 38.2292 25.1834C38.5656 25.1834 38.903 25.1568 39.2524 25.1411C39.3335 24.7986 39.411 24.4734 39.4902 24.14C39.4331 24.1207 39.3999 24.1024 39.3658 24.0996C39.1381 24.0794 38.9113 24.0482 38.6836 24.0482C33.927 24.0463 29.1704 24.0482 24.4146 24.0491C23.5149 24.0491 22.6152 24.0482 21.7155 24.0491C18.1536 24.0555 14.5926 24.0638 11.0306 24.0693C10.8914 24.0693 10.7504 24.0574 10.613 24.0326C10.4609 24.005 10.3521 23.8828 10.3531 23.7708C10.354 23.6395 10.4794 23.4989 10.6315 23.475C10.7624 23.4548 10.8951 23.4429 11.0269 23.4429C13.2688 23.4392 15.5107 23.4365 17.7526 23.4346C22.7895 23.4319 27.8263 23.43 32.8623 23.4273C34.8461 23.4264 36.8298 23.4236 38.8136 23.4218C38.8505 23.4218 38.8874 23.4245 38.9242 23.4218C39.1556 23.3979 39.3879 23.3722 39.6248 23.3465C39.6654 22.9919 39.7032 22.6659 39.7456 22.2976L39.7474 22.2985ZM25.1272 6.93624C27.1598 8.95962 29.1851 10.9757 31.2196 13.0009C32.111 12.1219 32.984 11.2622 33.8634 10.3961C35.6268 12.1458 37.3737 13.8789 39.1206 15.6121C39.151 15.5423 39.151 15.4927 39.1427 15.4458C38.962 14.452 38.6532 13.4978 38.2494 12.5738C37.2161 10.2078 35.743 8.14219 33.8938 6.34383C30.4056 2.95286 26.2085 1.14532 21.3532 0.844981C19.7806 0.747624 18.2144 0.856003 16.6657 1.15175C13.6716 1.72303 10.9467 2.90602 8.51217 4.73652C6.02323 6.60835 4.05973 8.92013 2.69358 11.7187C1.54406 14.0736 0.837942 16.548 0.719948 19.1748C0.707965 19.4439 0.718105 19.7139 0.718105 19.9977H5.09126C5.10785 19.9224 5.12721 19.8526 5.1392 19.781C5.24613 19.1417 5.41298 18.5208 5.71257 17.9395C6.7524 15.9216 9.00443 14.7974 11.2703 15.2851C11.5643 15.3485 11.852 15.444 12.1359 15.5432C12.4779 15.6617 12.7719 15.6139 13.0254 15.3512C13.0817 15.2934 13.1397 15.2373 13.1969 15.1795C14.6562 13.7255 16.1145 12.2716 17.5747 10.8186C17.7185 10.6753 17.8752 10.5458 18.031 10.4053C18.6431 10.9867 19.2146 11.5745 19.8378 12.1596C19.9143 12.0705 19.9668 11.9988 20.0286 11.9364C21.4878 10.4824 22.9471 9.02943 24.4082 7.57733C24.5852 7.40099 24.7723 7.23474 24.9567 7.06575C25.0037 7.02258 25.0581 6.98584 25.1244 6.93533L25.1272 6.93624ZM25.083 8.12015C23.5546 9.64847 22.0068 11.1961 20.4462 12.7566C20.4794 12.7961 20.5227 12.8539 20.5725 12.9053C20.7052 13.0431 20.8398 13.1781 20.9762 13.3131C23.1038 15.4311 25.2341 17.5454 27.3553 19.6698C27.63 19.9454 27.9296 20.0703 28.3177 20.0694C31.0979 20.0593 33.8781 20.0593 36.6574 20.0556C36.7312 20.0556 36.8059 20.0556 36.8778 20.0446C36.9312 20.0363 36.9819 20.0106 37.0253 19.9959C33.0383 16.0309 29.0607 12.076 25.083 8.12015ZM15.4941 19.9996C15.5448 20.0088 15.5734 20.0189 15.602 20.0189C19.2137 20.0207 22.8254 20.0207 26.4371 20.0216C26.474 20.0216 26.51 20.0161 26.5468 20.0115C26.5533 20.0115 26.5588 20.0042 26.5634 19.9987C26.568 19.9941 26.5708 19.9876 26.5745 19.9821C26.2058 19.3906 18.5942 11.8004 18.0808 11.5029C16.5044 13.0716 14.9336 14.6357 13.3536 16.2082C14.575 17.1624 15.3272 18.4106 15.4941 20.0005V19.9996ZM31.7994 13.5409C31.875 13.6263 31.9349 13.6998 32.0013 13.766C33.6993 15.4587 35.3973 17.1514 37.0962 18.8432C37.4143 19.1601 37.7351 19.4733 38.0522 19.7911C38.2209 19.9601 38.4108 20.0629 38.6597 20.051C38.8874 20.0409 39.1169 20.0519 39.3446 20.0528C39.4976 20.0528 39.6497 20.0528 39.8221 20.0528C39.835 19.8186 39.8673 19.6138 39.8516 19.4127C39.8055 18.8129 39.7382 18.215 39.6829 17.6162C39.658 17.3489 39.6027 17.0926 39.4349 16.8759C39.3455 16.7601 39.2487 16.6481 39.1445 16.5452C37.5433 14.9526 35.9412 13.3618 34.3381 11.772C34.2496 11.6838 34.1556 11.6011 34.0616 11.5185C34.0192 11.4817 33.9703 11.4514 33.9528 11.4395C33.2329 12.1412 32.5277 12.8282 31.7976 13.54L31.7994 13.5409Z" fill="#932230"/>
<path d="M56.9912 5.87595e-06C57.075 0.0156198 57.1589 0.0440922 57.2437 0.0459291C57.5673 0.0514399 57.8909 0.0477661 58.2264 0.0477661C61.1117 6.48896 63.9943 12.9247 66.8851 19.3787C66.8271 19.3916 66.7884 19.4072 66.7487 19.4072C65.9301 19.409 65.1115 19.4035 64.293 19.4127C64.1492 19.4145 64.0985 19.3438 64.0496 19.2391C63.6624 18.3996 63.2707 17.562 62.8872 16.7197C62.5313 15.9381 62.1857 15.1519 61.8363 14.3676C61.8123 14.3143 61.7893 14.2601 61.7635 14.2068C61.5975 13.8606 61.3201 13.6897 60.9347 13.6916C60.1604 13.6952 59.3861 13.7008 58.6117 13.7008C57.4539 13.7017 56.297 13.7008 55.1392 13.6989C54.7115 13.6989 54.2837 13.6934 53.856 13.6916C53.3536 13.6897 53.1195 13.844 52.9231 14.3115C52.536 15.2318 52.1515 16.1521 51.7662 17.0734C51.5229 17.6557 51.2813 18.2389 51.0361 18.8203C50.9845 18.9415 50.9274 19.0618 50.8564 19.1721C50.7375 19.3576 50.5559 19.4577 50.3365 19.4595C49.5704 19.465 48.8044 19.4614 48.0033 19.4614C48.0328 19.3649 48.0494 19.2896 48.0789 19.2189C48.3407 18.5815 48.5988 17.9413 48.8698 17.3076C51.2251 11.8014 53.5822 6.297 55.9403 0.791723C55.9919 0.670486 56.0481 0.549248 56.1163 0.437195C56.2472 0.222275 56.4233 0.0624615 56.6906 0.0349076C56.7174 0.0321522 56.7432 0.0110275 56.769 -0.00183105C56.8427 -0.00183105 56.9165 -0.00183105 56.9902 -0.00183105L56.9912 5.87595e-06ZM60.3392 11.1777C60.3171 11.1189 60.3005 11.0703 60.2802 11.0243C59.3197 8.88157 58.3582 6.73879 57.3968 4.59601C57.3756 4.54916 57.358 4.49957 57.3276 4.45916C57.2751 4.38935 57.1718 4.39211 57.1202 4.46191C57.0944 4.49681 57.0806 4.53998 57.064 4.58131C56.1753 6.72317 55.2867 8.86411 54.399 11.0069C54.3778 11.0574 54.3676 11.1134 54.352 11.1667C55.1254 11.3623 59.7493 11.3743 60.3402 11.1786L60.3392 11.1777Z" fill="#932230"/>
<path d="M150 6.82695C149.218 8.50958 148.443 10.195 147.655 11.8748C145.564 16.3266 143.469 20.7757 141.374 25.2238C141.302 25.3754 141.218 25.5241 141.118 25.6592C140.967 25.8649 140.753 25.977 140.495 25.9871C140.356 25.9926 140.216 25.9843 140.076 25.9834C139.545 25.9825 139.014 25.9815 138.484 25.9806C138.433 25.9806 138.381 25.9806 138.298 25.9806C138.328 25.8906 138.345 25.8162 138.377 25.7473C138.682 25.0723 138.98 24.3935 139.296 23.723C140.27 21.651 141.245 19.5789 142.235 17.5133C142.483 16.9934 142.479 16.5112 142.222 15.9987C141.219 13.9974 140.227 11.9896 139.233 9.98372C138.819 9.14883 138.408 8.31211 137.999 7.47447C137.897 7.26598 137.811 7.05014 137.701 6.7994C137.816 6.7994 137.887 6.7994 137.958 6.7994C138.725 6.7994 139.492 6.80583 140.259 6.7948C140.435 6.79205 140.515 6.85083 140.59 7.00605C141.656 9.23057 142.729 11.4505 143.8 13.6723C143.835 13.7439 143.872 13.8146 143.923 13.9166C143.97 13.8413 144.009 13.7917 144.035 13.7366C144.445 12.875 144.862 12.0172 145.263 11.1511C145.845 9.89187 146.417 8.62806 146.994 7.36701C147.027 7.29353 147.063 7.22097 147.102 7.15025C147.255 6.87012 147.498 6.74796 147.812 6.75164C148.496 6.75898 149.182 6.76725 149.867 6.77644C149.912 6.77644 149.956 6.78195 149.999 6.7847V6.82879L150 6.82695Z" fill="#932230"/>
<path d="M84.351 18.6191C84.2183 18.4988 84.1058 18.4042 84.0026 18.3004C83.8311 18.1296 83.6468 17.967 83.5011 17.7751C83.0503 17.1817 83.1001 16.5498 83.6431 16.0383C83.8339 15.8582 84.0616 15.7159 84.2837 15.5735C84.4755 15.4504 84.6829 15.3531 84.8829 15.2429C84.9263 15.219 84.965 15.1887 85.0341 15.1409C84.8424 15.0114 84.6774 14.8929 84.505 14.7855C84.1215 14.5467 83.7638 14.2785 83.455 13.9478C82.8392 13.2893 82.5074 12.5095 82.429 11.6149C82.3811 11.0684 82.4189 10.5284 82.5443 9.99751C82.7627 9.07078 83.2882 8.34611 84.0671 7.80237C84.8682 7.24303 85.7596 6.91422 86.733 6.82972C87.1801 6.79114 87.6309 6.7838 88.0798 6.78196C89.6359 6.77645 91.1919 6.7792 92.748 6.78196C92.877 6.78196 93.0061 6.80951 93.1388 6.82513C93.149 6.88483 93.1591 6.91973 93.1591 6.95555C93.161 7.44693 93.1628 7.93923 93.1591 8.43061C93.1591 8.59409 93.148 8.61522 92.9895 8.62899C92.6742 8.65471 92.358 8.6639 92.0419 8.67675C91.6814 8.69145 91.321 8.70247 90.9605 8.71717C90.9246 8.719 90.8896 8.73094 90.8241 8.7438C90.8859 8.92658 90.979 9.0772 91.0988 9.21406C91.3874 9.54379 91.6141 9.91025 91.7635 10.3226C92.0326 11.0675 92.028 11.8197 91.7985 12.571C91.5726 13.3104 91.167 13.9414 90.5891 14.4594C90.177 14.8296 89.7096 15.1033 89.1694 15.2364C88.3619 15.4348 87.5498 15.6148 86.7423 15.8123C86.4934 15.8729 86.2417 15.9437 86.0094 16.0484C85.7301 16.1742 85.5697 16.4056 85.5568 16.7253C85.5457 16.998 85.6499 17.2157 85.8711 17.3673C85.9974 17.4536 86.1385 17.5216 86.2813 17.5794C87.0207 17.8807 87.7996 18.0469 88.5712 18.2371C89.2284 18.3987 89.8894 18.5493 90.542 18.7266C91.1707 18.8965 91.7303 19.2005 92.2004 19.657C93.5546 20.9722 93.5407 23.0957 92.1645 24.4238C91.5413 25.0254 90.7863 25.4011 89.9576 25.627C88.8532 25.9274 87.7268 26.0238 86.5846 25.954C85.7872 25.9053 85.0028 25.785 84.2413 25.537C83.5177 25.301 82.8697 24.9318 82.3018 24.4248C81.7211 23.9067 81.4122 23.2482 81.2896 22.4941C81.2002 21.9477 81.2454 21.4094 81.4325 20.8887C81.698 20.1493 82.1949 19.6037 82.8955 19.2529C83.2826 19.0591 83.6901 18.9029 84.0883 18.7303C84.1621 18.6981 84.2358 18.6678 84.3473 18.6201L84.351 18.6191ZM86.6888 20.0391C86.4924 20.0584 86.1394 20.0795 85.79 20.1309C85.2268 20.2127 84.7096 20.4221 84.2561 20.7665C83.7242 21.1706 83.4928 21.7061 83.6265 22.3702C83.7168 22.8165 83.9703 23.1674 84.3593 23.3988C84.5972 23.5403 84.8544 23.6661 85.1198 23.7405C86.0186 23.9949 86.9368 24.107 87.8706 23.9903C88.2706 23.9407 88.6716 23.8718 89.0643 23.78C89.4451 23.6909 89.8064 23.5375 90.1254 23.3052C90.5798 22.9754 90.8352 22.5447 90.7605 21.9669C90.7089 21.5665 90.4876 21.2606 90.1834 21.0108C89.9318 20.8042 89.6469 20.648 89.3446 20.5286C88.5426 20.2108 87.7083 20.0529 86.6879 20.04L86.6888 20.0391ZM87.3599 8.88065C86.5625 8.88341 85.9808 9.08088 85.4803 9.49786C84.1427 10.612 84.4239 12.6592 86.014 13.338C86.8059 13.676 87.6106 13.664 88.3933 13.2994C89.6202 12.7272 90.0774 11.2797 89.3944 10.1132C88.9113 9.28845 88.1582 8.91004 87.3599 8.88065Z" fill="#932230"/>
<path d="M112.33 13.2957H103.462C103.425 13.5317 103.432 13.7568 103.461 13.979C103.685 15.6571 104.936 16.9604 106.608 17.2708C107.351 17.4086 108.088 17.3691 108.827 17.2497C109.793 17.0926 110.684 16.7427 111.522 16.2476C111.716 16.1328 111.917 16.0272 112.143 15.9023C112.149 15.9886 112.155 16.0437 112.155 16.0988C112.155 16.627 112.14 17.156 112.161 17.6841C112.176 18.069 112.011 18.3169 111.693 18.5117C110.887 19.0058 110.02 19.3429 109.089 19.5045C107.961 19.7001 106.829 19.6928 105.7 19.5119C104.187 19.2694 102.993 18.5117 102.139 17.2442C101.428 16.1898 101.014 15.0206 100.881 13.7586C100.692 11.9667 101.108 10.3144 102.12 8.82644C103.002 7.53048 104.251 6.79296 105.806 6.55875C106.74 6.41822 107.659 6.48803 108.559 6.76356C110.134 7.24576 111.155 8.32771 111.802 9.79358C112.095 10.4576 112.242 11.1621 112.294 11.8831C112.325 12.2992 112.327 12.718 112.34 13.1359C112.341 13.179 112.334 13.2222 112.329 13.2957H112.33ZM109.82 11.7977C109.827 11.7591 109.836 11.7315 109.836 11.704C109.836 11.5717 109.841 11.4395 109.828 11.3081C109.707 10.1435 109.133 9.30496 108.026 8.8595C107.71 8.73275 107.376 8.6804 107.036 8.65193C105.75 8.54263 104.406 9.28016 103.822 10.4255C103.639 10.7837 103.539 11.1639 103.54 11.5671C103.54 11.6443 103.555 11.7205 103.563 11.7968H109.82V11.7977Z" fill="#932230"/>
<path d="M136.744 15.9593C136.764 16.097 136.797 16.2192 136.798 16.3413C136.798 16.8842 136.789 17.4261 136.787 17.9689C136.787 18.1296 136.715 18.2499 136.591 18.3436C136.509 18.4061 136.426 18.4676 136.338 18.5218C135.436 19.0784 134.456 19.42 133.403 19.556C132.47 19.6772 131.534 19.6873 130.603 19.5532C128.761 19.2869 127.364 18.3528 126.475 16.7152C125.726 15.3384 125.408 13.8578 125.548 12.2973C125.668 10.9408 126.104 9.68799 126.946 8.59869C127.843 7.43775 129.038 6.7737 130.489 6.56061C131.537 6.40723 132.56 6.51469 133.558 6.86462C134.225 7.09883 134.794 7.48091 135.28 7.98791C136.114 8.85586 136.617 9.8928 136.851 11.0648C136.987 11.7435 137.036 12.4305 137.033 13.1221C137.033 13.1726 137.025 13.2222 137.019 13.2948C136.919 13.2985 136.826 13.3049 136.733 13.3049C133.938 13.3049 131.143 13.3049 128.349 13.3049C128.255 13.3049 128.162 13.3113 128.053 13.315C128.044 13.6319 128.09 13.9212 128.149 14.2068C128.504 15.928 129.869 17.1478 131.627 17.3168C133.181 17.4665 134.626 17.1119 135.981 16.3606C136.212 16.2321 136.443 16.0998 136.673 15.9703C136.685 15.9639 136.701 15.9639 136.742 15.9556L136.744 15.9593ZM134.496 11.7499C134.505 11.6737 134.515 11.6168 134.517 11.5598C134.57 10.4127 133.875 9.34632 132.778 8.89076C132.057 8.59134 131.311 8.56379 130.57 8.77228C129.336 9.11854 128.521 9.89097 128.249 11.1686C128.208 11.3587 128.174 11.5543 128.214 11.7619C128.336 11.7775 128.444 11.7995 128.554 11.8041C130.388 11.8877 132.223 11.8822 134.057 11.8023C134.202 11.7959 134.346 11.7692 134.497 11.7509L134.496 11.7499Z" fill="#932230"/>
<path d="M71.2592 19.2914C70.8075 19.5018 69.2745 19.511 68.8468 19.3548C68.8357 19.2501 68.8164 19.1353 68.8127 19.0196C68.7896 18.3666 68.7555 17.7144 68.7528 17.0614C68.7408 14.272 68.7334 11.4836 68.7353 8.69419C68.7353 8.12934 68.7795 7.5654 68.8044 7.00054C68.8062 6.95095 68.8173 6.90135 68.8256 6.83797H71.2214C71.2454 7.29261 71.2703 7.75001 71.2961 8.23312C71.3542 8.20189 71.4003 8.18536 71.4353 8.15689C71.6648 7.97228 71.8897 7.78307 72.1202 7.59938C72.7581 7.09239 73.467 6.72133 74.2782 6.59183C76.0205 6.31445 77.4908 6.78103 78.5721 8.22577C78.9712 8.7594 79.1768 9.37661 79.2883 10.0306C79.4165 10.78 79.4275 11.5341 79.4275 12.29C79.4275 13.641 79.4331 14.9912 79.4331 16.3423C79.4331 17.1569 79.4312 17.9716 79.4257 18.7863C79.4239 18.9828 79.4027 19.1785 79.3897 19.386H77.0068C76.9976 19.0811 76.981 18.789 76.981 18.4979C76.981 17.0963 76.9875 15.6938 76.9847 14.2922C76.9829 13.529 76.969 12.7657 76.957 12.0025C76.9469 11.3311 76.8317 10.6735 76.663 10.026C76.4583 9.23701 75.8988 8.81451 75.1346 8.63357C73.8164 8.32038 72.3285 8.88983 71.5422 9.99198C71.3698 10.2335 71.2749 10.4962 71.2703 10.791C71.2657 11.107 71.2601 11.422 71.2592 11.738C71.2546 13.0009 71.2491 14.2628 71.2491 15.5257C71.2491 16.6858 71.2546 17.8449 71.2583 19.0049C71.2583 19.0995 71.2583 19.1941 71.2583 19.2905L71.2592 19.2914Z" fill="#932230"/>
<path d="M122.498 7.54702V9.86247C122.4 9.82298 122.32 9.79083 122.241 9.75777C121.445 9.43171 120.653 9.0928 119.85 8.78327C119.282 8.56468 118.697 8.57019 118.116 8.7594C117.91 8.82644 117.722 8.9238 117.562 9.06984C117.206 9.39405 117.117 9.85237 117.354 10.2694C117.45 10.4383 117.582 10.6 117.731 10.7231C117.998 10.9417 118.28 11.1446 118.573 11.3265C119.261 11.7527 119.959 12.1623 120.654 12.5793C121.283 12.9568 121.858 13.3976 122.325 13.9689C122.721 14.4548 123.025 14.9875 123.132 15.6111C123.334 16.7923 122.967 17.7852 122.08 18.5833C121.444 19.1555 120.683 19.4687 119.839 19.5954C118.025 19.8682 116.342 19.4678 114.743 18.6265C114.652 18.5778 114.594 18.5282 114.595 18.4115C114.6 17.641 114.598 16.8704 114.599 16.0998C114.599 16.0731 114.607 16.0456 114.617 15.9932C114.719 16.0502 114.807 16.097 114.895 16.1475C115.537 16.5213 116.181 16.8942 116.879 17.1606C117.396 17.3581 117.923 17.5206 118.481 17.5555C119.075 17.5923 119.624 17.4536 120.096 17.0807C120.72 16.5875 120.765 15.838 120.184 15.2888C119.935 15.0536 119.644 14.8571 119.353 14.6725C118.75 14.2904 118.136 13.9267 117.525 13.5575C116.869 13.1607 116.232 12.7363 115.683 12.1963C114.924 11.4496 114.571 10.5458 114.659 9.48957C114.729 8.64367 115.119 7.95206 115.783 7.41844C116.377 6.94083 117.067 6.67081 117.818 6.57437C119.461 6.36312 120.996 6.71305 122.438 7.50202C122.458 7.51212 122.473 7.52865 122.498 7.54794V7.54702Z" fill="#932230"/>
<path d="M97.6964 19.4108H95.436C95.4259 19.3061 95.4093 19.2069 95.4075 19.1068C95.3872 18.1314 95.3577 17.1551 95.3521 16.1797C95.3337 12.8989 95.3199 9.61816 95.3116 6.3374C95.3088 4.95786 95.3236 3.57741 95.3346 2.19787C95.3392 1.65506 95.3549 1.11225 95.3678 0.569434C95.3706 0.44636 95.3872 0.324204 95.3982 0.190108C96.1551 0.0973432 96.8953 0.133163 97.6567 0.164391C97.6687 0.301242 97.6853 0.416051 97.6871 0.531777C97.7083 1.55862 97.7378 2.58638 97.7443 3.61323C97.7636 6.62212 97.7775 9.63193 97.7849 12.6408C97.7885 14.1673 97.7738 15.6938 97.7627 17.2212C97.7581 17.8081 97.7425 18.395 97.7286 18.9819C97.7249 19.1206 97.7083 19.2584 97.6964 19.4127V19.4108Z" fill="#932230"/>
<path d="M143.765 33.378C143.795 33.4423 143.812 33.4671 143.82 33.4946C143.902 33.7646 143.822 33.8877 143.539 33.9024C143.304 33.9153 143.067 33.9125 142.831 33.9208C142.707 33.9254 142.583 33.9373 142.434 33.9474C142.472 34.02 142.494 34.0714 142.524 34.1173C142.645 34.3019 142.775 34.4801 142.89 34.6675C143.262 35.2709 143.401 35.9184 143.199 36.6073C142.983 37.3439 142.467 37.8187 141.764 38.0897C141.395 38.2321 141.007 38.3267 140.627 38.4424C140.381 38.5177 140.133 38.5884 139.888 38.6702C139.688 38.7363 139.519 38.8474 139.402 39.0302C139.179 39.3792 139.323 39.7916 139.728 39.9018C139.969 39.967 140.218 40.0065 140.466 40.0387C141.094 40.1186 141.724 40.1838 142.353 40.2619C142.498 40.2802 142.643 40.316 142.782 40.3611C143.46 40.5824 143.84 41.0967 143.884 41.8278C143.928 42.5782 143.615 43.1293 142.968 43.5059C142.519 43.7676 142.024 43.8687 141.519 43.9412C140.704 44.0579 139.902 44.0009 139.111 43.7768C138.767 43.6795 138.453 43.5197 138.178 43.291C137.387 42.6333 137.443 41.5064 138.308 40.9516C138.559 40.7909 138.851 40.6935 139.126 40.5695C139.231 40.5218 139.339 40.4814 139.477 40.4253C139.344 40.3427 139.242 40.2848 139.146 40.2196C139.037 40.1452 138.921 40.0763 138.827 39.9854C138.462 39.6391 138.474 39.1533 138.862 38.8336C139.019 38.7032 139.203 38.604 139.378 38.4957C139.509 38.4148 139.646 38.3441 139.816 38.2495C139.719 38.1898 139.647 38.1466 139.577 38.1016C139.355 37.9583 139.118 37.8325 138.913 37.6672C138.274 37.151 138.013 36.4686 138.087 35.6603C138.107 35.4353 138.143 35.2057 138.218 34.9935C138.525 34.1173 139.198 33.6563 140.075 33.4827C140.837 33.332 141.615 33.3605 142.389 33.3752C142.846 33.3835 143.303 33.377 143.765 33.377V33.378ZM142.607 35.8459C142.609 34.8034 141.706 33.9199 140.647 33.9263C139.585 33.9336 138.724 34.786 138.728 35.8257C138.733 36.8911 139.602 37.771 140.657 37.7783C141.708 37.7857 142.605 36.8966 142.607 35.8459ZM140.697 43.4535C140.961 43.4306 141.225 43.415 141.488 43.3819C141.916 43.3286 142.317 43.1918 142.684 42.9585C143.104 42.6912 143.27 42.3128 143.19 41.8297C143.117 41.3815 142.838 41.1142 142.407 41.0049C142.079 40.9222 141.748 40.8478 141.415 40.7881C141.223 40.7532 141.027 40.6513 140.83 40.7771C140.82 40.7835 140.801 40.779 140.786 40.7771C140.442 40.7404 140.114 40.8377 139.782 40.8974C139.476 40.9525 139.176 41.0223 138.898 41.1647C138.206 41.5192 138.081 42.3293 138.633 42.8749C138.826 43.0659 139.06 43.1853 139.32 43.2579C139.77 43.3819 140.228 43.4471 140.696 43.4544L140.697 43.4535Z" fill="#932230"/>
<path d="M55.9633 34.5242V29.7197H56.6989V40.2848C56.5302 40.3362 56.2011 40.339 55.9873 40.2857V35.383C55.8131 35.3618 55.6563 35.3334 55.4978 35.3233C53.6126 35.2048 51.7257 35.2158 49.8387 35.2415C49.5511 35.2452 49.2644 35.2654 48.9777 35.2801C48.9058 35.2838 48.8339 35.2985 48.7482 35.3095C48.7371 35.382 48.7196 35.4454 48.7187 35.5079C48.7085 36.4318 48.7011 37.3558 48.691 38.2798C48.6836 38.9181 48.6735 39.5565 48.6643 40.1948C48.6643 40.2297 48.6541 40.2655 48.6458 40.3215C48.4255 40.3372 48.208 40.3528 47.9941 40.3675C47.9462 40.1976 47.9333 30.0283 47.9794 29.7427H48.6753V34.4957C49.0081 34.5214 49.3151 34.5573 49.6221 34.5674C51.3975 34.6252 53.1739 34.6528 54.9502 34.5912C55.201 34.583 55.4508 34.5729 55.7015 34.5609C55.7743 34.5573 55.8462 34.5416 55.9642 34.5242H55.9633Z" fill="#932230"/>
<path d="M79.9364 39.979C79.7825 40.0331 79.6313 40.0873 79.4792 40.1397C78.9897 40.3096 78.4882 40.4244 77.9701 40.4538C77.2096 40.497 76.5044 40.3289 75.8868 39.8706C74.9853 39.201 74.4902 38.3 74.3805 37.1896C74.2764 36.1324 74.5446 35.1827 75.2351 34.3625C75.8057 33.6847 76.5358 33.3072 77.4207 33.2034C78.2513 33.1061 79.0312 33.2769 79.7917 33.5874C79.8719 33.6195 79.9511 33.6526 80.0655 33.6985V29.7344C80.2978 29.716 80.5052 29.6995 80.7412 29.6811C80.7412 29.7895 80.7412 29.8676 80.7412 29.9466C80.7412 33.3072 80.7412 36.6679 80.7393 40.0295C80.7393 40.1388 80.7854 40.2692 80.6315 40.3316C80.4674 40.3978 80.3107 40.4005 80.1788 40.2738C80.095 40.193 80.0295 40.0938 79.9364 39.979ZM80.0922 36.9195C80.0922 36.4502 80.0968 35.9809 80.0903 35.5115C80.0876 35.2773 80.0756 35.0422 80.0498 34.8098C80.0249 34.5784 79.9069 34.4075 79.694 34.2881C79.257 34.0438 78.7924 33.8914 78.2955 33.8399C77.1497 33.7215 76.0113 34.2073 75.437 35.3416C75.1291 35.9506 75.035 36.599 75.1392 37.2667C75.484 39.4802 77.8143 40.4226 79.6055 39.471C79.9373 39.2947 80.1023 39.0394 80.095 38.6573C80.083 38.0777 80.0922 37.4982 80.0922 36.9195Z" fill="#932230"/>
<path d="M115.029 36.4796H109.563C109.474 36.9094 109.482 37.3145 109.58 37.7195C109.664 38.0676 109.816 38.3845 110.045 38.6582C110.588 39.3075 111.257 39.742 112.118 39.8412C112.529 39.888 112.926 39.8201 113.318 39.7071C113.802 39.5666 114.248 39.3424 114.685 39.0963C114.754 39.0577 114.824 39.0201 114.894 38.9815C115.075 39.3415 115.007 39.6134 114.681 39.8191C113.904 40.3087 113.05 40.5172 112.136 40.4859C110.383 40.4262 109.133 39.2754 108.817 37.5652C108.639 36.6054 108.761 35.6814 109.222 34.8098C110.239 32.8875 112.791 32.6854 114.149 33.9997C114.841 34.6693 115.093 35.4968 115.03 36.4796H115.029ZM114.148 35.8945C114.211 35.1478 113.724 34.357 113.012 34.0438C112.459 33.8004 111.883 33.7609 111.307 33.9345C110.464 34.1889 109.914 34.729 109.749 35.6135C109.733 35.7026 109.739 35.7953 109.735 35.8945H114.148Z" fill="#932230"/>
<path d="M59.0828 36.791C59.08 35.1276 60.1539 33.7031 61.7506 33.2852C63.4615 32.8379 65.7319 33.6553 66.2067 35.9946C66.3892 36.8957 66.309 37.7801 65.8868 38.6104C65.3623 39.64 64.5022 40.226 63.373 40.4235C62.7102 40.5392 62.0474 40.5098 61.4113 40.2729C60.1484 39.8035 59.4229 38.8786 59.1685 37.5772C59.1178 37.3191 59.1114 37.0527 59.0837 36.79L59.0828 36.791ZM59.8276 36.8332C59.87 37.1152 59.8903 37.4017 59.9576 37.6773C60.2222 38.7528 61.0361 39.6602 62.3405 39.8164C63.7528 39.9854 64.8239 39.1679 65.2766 38.1852C65.5688 37.5505 65.6278 36.8892 65.4932 36.2086C65.2 34.7189 63.9261 33.6388 62.3285 33.8601C61.4777 33.9777 60.8038 34.3745 60.3346 35.0955C59.9926 35.6208 59.8516 36.2068 59.8276 36.8332Z" fill="#932230"/>
<path d="M83.1361 34.4599C82.9849 34.1228 83.0439 33.9106 83.3333 33.7389C83.7933 33.4652 84.2911 33.2916 84.823 33.2145C85.295 33.1465 85.7642 33.1612 86.2251 33.2888C87.0262 33.5111 87.4843 34.0751 87.512 34.9017C87.5341 35.5611 87.5295 36.2224 87.5313 36.8828C87.5332 37.6093 87.524 38.3358 87.5304 39.0623C87.5332 39.3314 87.5664 39.6005 87.5894 39.911C87.9498 39.731 88.2789 39.5656 88.609 39.4003C88.7187 39.6639 88.7122 39.7098 88.5389 39.8807C88.2494 40.1654 87.9185 40.373 87.5083 40.4382C87.2115 40.4859 86.9607 40.3417 86.8538 40.0533C86.8188 39.9578 86.793 39.8595 86.7588 39.7475C86.6952 39.7741 86.6409 39.7916 86.5911 39.8173C86.3625 39.9349 86.1366 40.0598 85.9052 40.1737C85.3909 40.4272 84.8461 40.5218 84.2745 40.4722C83.3112 40.3895 82.6125 39.5776 82.6466 38.5856C82.6604 38.1815 82.8079 37.8288 83.0503 37.512C83.4753 36.9554 84.0542 36.6339 84.7253 36.4778C85.3051 36.3427 85.8932 36.238 86.4768 36.1205C86.5634 36.103 86.6492 36.0837 86.7515 36.0617C86.8639 35.4555 86.8603 34.8613 86.533 34.3166C86.2196 33.7958 85.7144 33.6553 85.1392 33.7067C84.6543 33.7499 84.2118 33.929 83.7813 34.143C83.5721 34.2468 83.361 34.3497 83.137 34.4599H83.1361ZM86.7957 36.6954C86.7515 36.689 86.7229 36.6798 86.6952 36.6817C86.3145 36.7147 85.9301 36.7294 85.5531 36.7873C85.0627 36.8626 84.5981 37.027 84.1897 37.32C83.8993 37.5276 83.6504 37.7746 83.49 38.0979C83.1379 38.8061 83.5011 39.6382 84.2607 39.8632C84.5999 39.9633 84.9428 39.9578 85.2858 39.8825C85.7577 39.7796 86.1532 39.5326 86.5247 39.2368C86.7183 39.0825 86.8068 38.8942 86.8059 38.6481C86.8022 38.0621 86.8086 37.4761 86.8095 36.8902C86.8095 36.8268 86.8003 36.7625 86.7957 36.6964V36.6954Z" fill="#932230"/>
<path d="M130.966 40.3234H130.378C130.334 40.1571 130.326 33.6728 130.374 33.4358C130.478 33.423 130.585 33.4064 130.694 33.3972C130.759 33.3917 130.824 33.3963 130.906 33.3963C130.941 33.715 130.975 34.0264 131.012 34.3653C131.08 34.3175 131.128 34.2891 131.17 34.2523C131.275 34.1605 131.381 34.0686 131.479 33.9685C132.246 33.1869 133.16 32.9968 134.198 33.287C134.462 33.3605 134.714 33.4597 134.945 33.6103C135.519 33.9851 135.834 34.5288 135.917 35.191C135.974 35.6475 135.978 36.1131 135.981 36.5742C135.987 37.7627 135.979 38.9512 135.977 40.1406C135.977 40.1911 135.971 40.2426 135.966 40.3114H135.356C135.345 40.1856 135.324 40.0561 135.324 39.9275C135.317 39.37 135.316 38.8116 135.314 38.2541C135.313 37.6304 135.316 37.0068 135.309 36.3823C135.303 35.9487 135.27 35.5161 135.129 35.101C134.89 34.3993 134.435 33.9244 133.671 33.8298C133.098 33.7591 132.556 33.8868 132.06 34.1853C131.633 34.4425 131.319 34.808 131.079 35.2388C130.98 35.4169 130.971 35.6163 130.971 35.8165C130.971 37.2254 130.969 38.6352 130.967 40.0442C130.967 40.1305 130.967 40.2168 130.967 40.3225L130.966 40.3234Z" fill="#932230"/>
<path d="M89.0948 33.4845C89.505 33.2999 89.7483 33.3789 89.9447 33.7508C90.3484 34.5168 90.743 35.2883 91.1486 36.0534C91.4952 36.7083 91.852 37.3586 92.205 38.0107C92.2391 38.074 92.2806 38.1337 92.3322 38.2182C92.3774 38.1585 92.4161 38.1181 92.4419 38.0704C92.6327 37.7149 92.8282 37.3613 93.0089 37.0004C93.5288 35.9634 94.0413 34.9237 94.5575 33.8849C94.587 33.8261 94.6147 33.7655 94.6479 33.7086C94.8313 33.3954 95.0664 33.3164 95.4416 33.4606C95.3697 33.6406 95.3116 33.828 95.2249 34.0007C94.198 36.0635 93.1665 38.1246 92.1368 40.1865C91.5994 41.263 91.0638 42.3412 90.5264 43.4186C90.4867 43.4976 90.4489 43.5775 90.4038 43.6528C90.2148 43.9678 89.9871 44.034 89.6128 43.8705C89.6967 43.6776 89.7714 43.4801 89.8654 43.2918C90.4775 42.0629 91.0859 40.8331 91.7118 39.6116C91.9183 39.2084 91.9183 38.8446 91.7017 38.4442C90.9237 37.004 90.1613 35.5556 89.3962 34.1081C89.2902 33.9079 89.198 33.7012 89.0938 33.4845H89.0948Z" fill="#932230"/>
<path d="M101.666 29.7252H102.382C102.384 29.8226 102.388 29.9144 102.388 30.0072C102.388 32.6266 102.384 35.2461 102.387 37.8656C102.387 38.4304 102.409 38.9953 102.422 39.5601C102.423 39.6097 102.431 39.6603 102.437 39.7319H107.672C107.692 39.9092 107.708 40.0653 107.726 40.2279C107.507 40.3234 107.282 40.3234 107.066 40.3289C106.012 40.3574 104.959 40.3813 103.905 40.3877C103.301 40.3914 102.696 40.3592 102.093 40.339C101.953 40.3344 101.815 40.3133 101.681 40.2995C101.635 40.1305 101.62 30.1 101.665 29.7252H101.666Z" fill="#932230"/>
<path d="M145.002 39.3792C145.091 39.2653 145.174 39.2616 145.285 39.3121C145.915 39.5969 146.585 39.7438 147.269 39.7971C147.821 39.8393 148.275 39.5914 148.598 39.1487C148.88 38.7611 148.822 38.2256 148.473 37.8775C148.329 37.7351 148.155 37.6121 147.975 37.5184C147.577 37.3136 147.167 37.1289 146.759 36.9434C146.41 36.7854 146.056 36.6394 145.748 36.407C145.385 36.1343 145.138 35.7898 145.094 35.3288C145.003 34.3781 145.543 33.5772 146.464 33.2999C147.161 33.0905 147.847 33.1437 148.519 33.4101C148.635 33.456 148.749 33.5084 148.86 33.5662C149.222 33.7545 149.305 34.0025 149.129 34.4039C148.942 34.3203 148.756 34.2349 148.567 34.154C148.391 34.0787 148.216 34.0034 148.036 33.94C147.5 33.7518 146.975 33.8013 146.469 34.0429C146.306 34.121 146.149 34.2284 146.021 34.3561C145.615 34.763 145.632 35.3581 146.064 35.7402C146.216 35.8743 146.398 35.9836 146.581 36.0736C147.023 36.2904 147.477 36.4833 147.921 36.6964C148.173 36.8167 148.426 36.9397 148.658 37.094C149.088 37.3806 149.355 37.7829 149.426 38.3009C149.511 38.9227 149.298 39.4407 148.853 39.8706C148.491 40.2205 148.044 40.4051 147.55 40.4648C146.812 40.5539 146.114 40.4171 145.459 40.0607C145.237 39.9404 145.083 39.7842 145.042 39.5307C145.034 39.4811 145.016 39.4325 145.001 39.3792H145.002Z" fill="#932230"/>
<path d="M123.255 31.0432C123.34 31.2333 123.342 31.4253 123.348 31.6108C123.359 31.9406 123.346 32.2712 123.354 32.6009C123.359 32.8416 123.381 33.0813 123.398 33.3421H125.231C125.291 33.5323 125.258 33.7058 125.26 33.9079C124.648 33.9235 124.04 33.9061 123.414 33.9189C123.393 34.11 123.359 34.2826 123.358 34.4553C123.354 35.8348 123.353 37.2144 123.36 38.5939C123.361 38.7969 123.393 39.0045 123.443 39.2019C123.554 39.6382 123.818 39.8531 124.269 39.8504C124.532 39.8485 124.794 39.7934 125.055 39.7521C125.242 39.7227 125.427 39.6749 125.635 39.6309C125.66 39.7448 125.692 39.8338 125.697 39.9257C125.706 40.103 125.626 40.2352 125.453 40.2729C124.927 40.3868 124.399 40.5052 123.857 40.4446C123.249 40.3767 122.836 40.0148 122.711 39.4196C122.648 39.1211 122.631 38.8079 122.629 38.5021C122.621 37.0785 122.625 35.6548 122.625 34.2312C122.625 34.144 122.625 34.0567 122.625 33.9373C122.025 33.9125 121.439 33.9382 120.862 33.9226C120.841 33.8923 120.822 33.8767 120.816 33.8565C120.697 33.4918 120.83 33.378 121.172 33.3835C121.62 33.3908 122.069 33.366 122.543 33.355C122.57 33.2099 122.607 33.084 122.613 32.9555C122.626 32.7212 122.613 32.4852 122.627 32.2519C122.639 32.0627 122.658 31.8698 122.707 31.688C122.786 31.4005 122.973 31.1902 123.253 31.0451L123.255 31.0432Z" fill="#932230"/>
<path d="M115.713 33.9134V33.3917C116.323 33.377 116.923 33.3945 117.539 33.3816C117.547 33.276 117.559 33.1897 117.561 33.1042C117.568 32.7378 117.572 32.3704 117.578 32.0039C117.586 31.5548 117.826 31.2563 118.232 31.0147C118.291 31.8 118.249 32.5605 118.313 33.3375C118.516 33.3669 118.72 33.3476 118.921 33.3513C119.128 33.355 119.334 33.3513 119.541 33.3513C119.747 33.3513 119.952 33.3513 120.184 33.3513C120.199 33.5378 120.212 33.7077 120.227 33.9033H118.392C118.321 34.1173 118.272 34.312 118.272 34.5205C118.273 35.7972 118.267 37.0739 118.273 38.3505C118.274 38.5976 118.303 38.8492 118.352 39.0917C118.47 39.6768 118.8 39.8761 119.388 39.843C119.658 39.8274 119.925 39.7604 120.194 39.7135C120.294 39.6961 120.394 39.6676 120.521 39.6373C120.542 39.7521 120.569 39.8559 120.578 39.9615C120.596 40.1553 120.563 40.2067 120.376 40.2747C119.971 40.4217 119.554 40.5117 119.121 40.4786C118.924 40.4639 118.722 40.4391 118.536 40.3785C118.02 40.2123 117.706 39.8412 117.626 39.3158C117.573 38.9641 117.587 38.6003 117.586 38.2421C117.581 36.8406 117.583 35.4399 117.581 34.0383C117.581 34.0034 117.574 33.9685 117.567 33.9134H115.714H115.713Z" fill="#932230"/>
<path d="M68.3933 29.7252C68.585 29.7087 68.7592 29.694 68.9298 29.6793C68.9842 29.8455 68.998 40.0451 68.9473 40.3225H68.3933V29.7252Z" fill="#932230"/>
<path d="M127.821 40.3289H127.355C127.275 40.1801 127.276 40.0074 127.272 39.8449C127.244 38.5976 127.213 37.3512 127.207 36.104C127.203 35.3784 127.24 34.6519 127.263 33.9263C127.268 33.7729 127.291 33.6204 127.306 33.4478H127.81C127.862 33.603 127.875 40.0681 127.82 40.3298L127.821 40.3289Z" fill="#932230"/>
<path d="M71.7607 40.3381C71.7377 40.0671 71.7072 39.8136 71.6962 39.5583C71.6197 37.8931 71.6252 36.227 71.6547 34.5618C71.6611 34.1899 71.6962 33.8179 71.7192 33.4294H72.2603C72.2659 33.5157 72.276 33.5938 72.276 33.6719C72.276 35.7926 72.276 37.9142 72.276 40.035C72.276 40.0791 72.276 40.1232 72.2742 40.1672C72.2686 40.271 72.2142 40.3316 72.1091 40.3372C72.0068 40.3418 71.9045 40.3381 71.7598 40.3381H71.7607Z" fill="#932230"/>
<path d="M127.285 29.7087H127.832C127.842 29.7454 127.861 29.7849 127.863 29.8253C127.871 30.0954 127.881 30.3654 127.875 30.6354C127.871 30.8375 127.824 30.8733 127.621 30.8788C127.513 30.8816 127.405 30.8788 127.286 30.8788V29.7078L127.285 29.7087Z" fill="#932230"/>
<path d="M71.7026 29.7271H72.2705V30.8705C72.0843 30.8862 71.899 30.9027 71.7026 30.9192V29.7271Z" fill="#932230"/>
</g>
<defs>
<clipPath id="clip0_5_29">
<rect width="150" height="44" fill="white"/>
</clipPath>
</defs>
</svg>
