<svg width="150" height="70" viewBox="0 0 150 70" fill="none" xmlns="http://www.w3.org/2000/svg">
<g clip-path="url(#clip0_5_18)">
<path d="M19.1452 8.77631C7.80831 8.77631 0 17.1778 0 27.7749C0 41.2066 10.0536 47.2015 19.1452 47.2015C28.2369 47.2015 38.2373 41.1553 38.2373 28.0964C38.2373 15.0375 28.1836 8.77631 19.1452 8.77631ZM29.672 42.479C28.8559 43.5344 27.5154 44.1459 26.2143 43.85C14.6822 41.2283 -6.2155 18.8191 10.1936 14.0788C27.612 9.04656 28.2211 26.3723 29.7311 33.0458C30.6911 37.289 30.9711 40.7943 29.672 42.479Z" fill="#102641"/>
<path d="M23.0031 38.727C23.0033 37.9709 23.3037 37.2458 23.8382 36.7112C24.3727 36.1767 25.0974 35.8764 25.8531 35.8766C26.6087 35.8767 27.3334 36.1772 27.8677 36.7119C28.4019 37.2466 28.7021 37.9718 28.7021 38.728C28.7021 39.4842 28.4019 40.2094 27.8677 40.7441C27.3334 41.2789 26.6087 41.5794 25.8531 41.5795C25.0974 41.5796 24.3727 41.2794 23.8382 40.7448C23.3037 40.2103 23.0033 39.4852 23.0031 38.729V38.727Z" fill="#102641"/>
<path d="M61.5065 25.966L53.1856 45.0612C49.1208 54.4273 45.3773 56.8892 40.4569 56.9957C38.2649 57.049 36.5518 56.3526 36.5518 55.2835C36.5518 54.2143 37.9968 51.9122 40.5102 51.9122C42.0616 51.9122 45.0028 52.3935 47.7843 52.8749C49.0676 51.4841 50.3509 49.3971 51.5278 46.9352L42.5426 26.1711C41.0444 22.5849 39.6014 21.2474 38.3713 20.6595V19.9099H47.8375V20.6595C46.0732 21.2474 46.8755 22.5868 48.4249 26.1179L54.5222 40.031L60.5504 25.9956" fill="#102641"/>
<path d="M63.8365 44.3116L63.3023 37.3008L63.8365 37.1943C66.137 42.3311 69.987 45.9173 74.7457 45.9706C78.0614 46.0239 80.2003 43.8303 80.2003 41.3684C80.2003 37.9439 77.472 36.6064 72.8197 35.1605C67.2035 33.4482 63.7281 31.8958 63.7281 27.0786C63.7281 23.011 66.8822 19.2649 74.1563 19.2649C77.2039 19.2649 80.4664 19.8527 82.2859 20.6023L82.554 26.4887L81.9114 26.5953C80.0919 22.7959 76.7781 20.0125 72.873 20.0125C69.504 20.0125 67.3119 21.778 67.3119 24.0801C67.3119 27.0766 69.987 28.3608 74.7989 29.9665C79.0767 31.4125 83.7841 32.6967 83.7841 38.155C83.7841 42.2226 81.2175 46.8248 73.4624 46.8248C69.5573 46.8248 65.869 45.6471 63.8365 44.3096V44.3116Z" fill="#102641"/>
<path d="M93.0078 12.8439H93.8634V19.908H102.153L101.94 20.7641H93.8653V39.1728C93.8653 42.4908 95.0954 43.9368 97.4491 43.9368C98.626 43.9368 100.444 43.4555 102.208 41.2619L102.742 41.7965C99.9074 45.0612 97.1811 47.2015 93.9718 47.2015C90.3347 47.2015 88.4107 44.8994 88.4107 39.1215V20.7661H84.9886V19.9099C84.9886 19.9099 93.27 18.0043 93.0098 12.8459L93.0078 12.8439Z" fill="#102641"/>
<path d="M101.386 33.9828C101.386 24.8849 108.498 19.2116 115.451 19.2116C122.404 19.2116 126.522 24.1886 126.522 28.844H106.253C106.2 29.4319 106.147 29.9685 106.147 30.5563C106.147 37.5671 110.424 42.5441 117.217 42.5441C121.176 42.5441 124.223 40.8318 126.469 38.3167L126.95 38.8513C124.489 42.5973 120.265 46.878 114.061 46.878C107.858 46.878 101.386 42.6506 101.386 33.9808V33.9828ZM121.12 28.0964C120.425 23.7073 117.483 20.2295 113.793 20.1762C109.247 20.123 106.947 23.9223 106.306 28.0964H121.12Z" fill="#102641"/>
<path d="M128.503 45.9154C130.267 45.3275 130.642 43.7218 130.642 39.8692V27.5599C130.642 24.4017 129.84 23.8671 128.503 23.2792V22.5296L135.562 19.4266L136.096 19.8547V26.3309C136.932 24.4272 138.284 22.7959 140 21.6222C141.906 20.2275 144.216 19.4946 146.578 19.5351C148.397 19.5351 150 20.0165 150 21.1409C150 22.2653 148.823 24.6186 146.363 24.6186C144.865 24.6186 142.832 24.0841 139.41 23.0129C138.074 24.1373 136.254 26.5439 136.094 29.2208V39.8712C136.094 43.7237 136.469 45.3295 138.233 45.9173V46.6669H128.499V45.9173L128.503 45.9154Z" fill="#102641"/>
<path d="M61.335 26.3467L60.5543 25.9916C61.6701 23.5357 62.6794 21.2237 63.5684 19.182C69.3128 6.01066 71.9346 0 83.2321 0C86.333 0 88.8227 0.978433 90.6363 2.90571C94.2064 6.70108 93.8831 12.7768 93.8673 13.0333L93.0098 12.982C93.0137 12.9228 93.3232 7.01276 90.0075 3.49159C88.3634 1.74579 86.0826 0.860075 83.2302 0.860075C78.0319 0.860075 74.6491 2.18175 71.9208 5.28078C69.2359 8.32852 67.1878 13.0274 64.353 19.5272C63.462 21.5709 62.4527 23.8868 61.333 26.3487L61.335 26.3467Z" fill="#102641"/>
<path d="M14.8679 69.8929V63.9631H13.831V66.4585H11.1479V63.9631H10.111V69.8929H11.1479V67.3233H13.831V69.8929H14.8679ZM19.8224 66.928C19.8148 67.3335 19.889 67.7364 20.0405 68.1126C20.1921 68.4887 20.418 68.8304 20.7046 69.1172C20.9912 69.404 21.3326 69.63 21.7085 69.7817C22.0844 69.9334 22.487 70.0076 22.8923 70C23.2977 70.0083 23.7006 69.9345 24.0768 69.7831C24.453 69.6316 24.7947 69.4056 25.0814 69.1187C25.3682 68.8318 25.594 68.4898 25.7453 68.1133C25.8966 67.7369 25.9703 67.3337 25.962 66.928C25.9681 66.5229 25.8929 66.1207 25.7408 65.7453C25.5887 65.3698 25.3629 65.0288 25.0766 64.7423C24.7903 64.4559 24.4494 64.2299 24.0742 64.0777C23.699 63.9256 23.2971 63.8504 22.8923 63.8566C22.4877 63.851 22.086 63.9267 21.7111 64.0791C21.3362 64.2315 20.9956 64.4575 20.7094 64.7438C20.4232 65.0301 20.1973 65.3709 20.045 65.746C19.8926 66.1212 19.8169 66.5231 19.8224 66.928ZM20.8595 66.928C20.8595 65.7338 21.7154 64.8113 22.8923 64.8113C24.0692 64.8113 24.9172 65.7338 24.9172 66.928C24.9172 68.1313 24.0695 69.0447 22.8927 69.0447C21.7158 69.0447 20.8595 68.1305 20.8595 66.928ZM34.3652 69.8929V69.02H31.9538V63.9631H30.9169V69.8929H34.3652ZM40.2168 69.8929V63.9631H39.1799V69.8929H40.2168ZM47.4097 69.8929C49.3603 69.8929 50.6196 68.6896 50.6196 66.928C50.6196 65.1737 49.344 63.9631 47.3851 63.9631H45.5827V69.8929H47.4097ZM47.3768 64.836C48.7265 64.836 49.5742 65.7089 49.5742 66.927C49.5742 68.1542 48.7265 69.018 47.4014 69.018H46.6196V64.836H47.3768ZM54.1752 69.8929H55.2616L55.7877 68.7152H58.2073L58.7348 69.8929H59.8212L57.0147 63.8726H56.9817L54.1752 69.8929ZM56.1258 67.941C56.4467 67.2162 56.7513 66.4585 57.0064 65.8409C57.2532 66.5163 57.5331 67.1833 57.8706 67.941H56.1258ZM62.158 63.9631L64.2978 67.5705V69.8929H65.3347V67.5703L67.4834 63.9629H66.3229L64.8163 66.582L63.3181 63.9631H62.158ZM81.252 64.2762C80.7167 63.9948 80.1201 63.8505 79.5155 63.8562C77.7048 63.8562 76.3797 65.1822 76.3797 66.9282C76.3797 68.6825 77.7048 70.0002 79.4908 70.0002C80.1158 70.0083 80.7336 69.8671 81.2932 69.5885V68.6245C80.748 68.9026 80.1444 69.0466 79.5324 69.0447C79.2526 69.0536 78.9739 69.0049 78.7137 68.9016C78.4535 68.7983 78.2172 68.6426 78.0197 68.4441C77.8221 68.2456 77.6674 68.0086 77.5652 67.7478C77.463 67.487 77.4154 67.208 77.4255 66.928C77.4161 66.6461 77.465 66.3653 77.569 66.1032C77.6731 65.8411 77.83 65.6033 78.0301 65.4046C78.2301 65.2059 78.469 65.0507 78.7318 64.9486C78.9945 64.8466 79.2754 64.7998 79.5571 64.8113C80.1482 64.8167 80.7295 64.9635 81.2524 65.2396L81.252 64.2762ZM85.7954 66.928C85.7878 67.3336 85.862 67.7365 86.0136 68.1128C86.1653 68.489 86.3912 68.8307 86.6779 69.1175C86.9645 69.4043 87.3061 69.6303 87.6821 69.7819C88.0581 69.9336 88.4608 70.0077 88.8661 70C89.2715 70.0082 89.6743 69.9344 90.0504 69.7829C90.4266 69.6314 90.7682 69.4054 91.0549 69.1185C91.3415 68.8316 91.5673 68.4896 91.7186 68.1132C91.8699 67.7368 91.9436 67.3336 91.9352 66.928C91.9414 66.523 91.8662 66.1208 91.7141 65.7454C91.5621 65.37 91.3362 65.029 91.05 64.7426C90.7638 64.4561 90.423 64.2301 90.0479 64.0779C89.6727 63.9257 89.2709 63.8505 88.8661 63.8566C88.4614 63.8509 88.0597 63.9265 87.6847 64.0788C87.3097 64.2312 86.969 64.4572 86.6827 64.7435C86.3965 65.0298 86.1705 65.3707 86.0181 65.7459C85.8657 66.1211 85.79 66.523 85.7954 66.928ZM86.8323 66.928C86.8323 65.7338 87.6883 64.8113 88.8651 64.8113C90.042 64.8113 90.8898 65.7338 90.8898 66.928C90.8898 68.1313 90.0422 69.0447 88.8651 69.0447C87.6881 69.0447 86.8325 68.1305 86.8325 66.928H86.8323ZM100.593 64.837V63.9631H96.0986V64.8362H97.8268V69.8929H98.8638V64.836L100.593 64.837ZM109.202 64.837V63.9631H104.707V64.8362H106.436V69.8929H107.473V64.836L109.202 64.837ZM111.893 69.8929H112.98L113.507 68.7152H115.926L116.453 69.8929H117.539L114.733 63.8726H114.7L111.893 69.8929ZM113.844 67.941C114.165 67.2162 114.47 66.4585 114.725 65.8409C114.972 66.5163 115.251 67.1833 115.589 67.941H113.844ZM126.239 69.5469V67.2162H125.234V68.8963C124.919 69.0053 124.588 69.061 124.255 69.061C123.973 69.0704 123.693 69.0215 123.431 68.9174C123.169 68.8133 122.931 68.6562 122.733 68.456C122.534 68.2558 122.379 68.0168 122.277 67.7539C122.175 67.491 122.128 67.2098 122.14 66.928C122.14 65.7338 122.979 64.8113 124.296 64.8113C124.914 64.8151 125.522 64.9616 126.074 65.2396V64.2677C125.509 63.9956 124.89 63.8548 124.263 63.856C122.436 63.856 121.103 65.182 121.103 66.928C121.103 68.6823 122.42 70 124.255 70C124.942 70.0029 125.621 69.848 126.239 69.5471V69.5469ZM135.135 69.8929V69.02H132.321V67.3152H134.6V66.467H132.321V64.8362H135.012V63.9631H131.284V69.8929H135.135ZM141.48 70C142.805 70 143.595 69.3741 143.595 68.3365C143.595 67.3975 143.003 66.9359 141.916 66.5329C141.011 66.2034 140.698 65.9235 140.698 65.5034C140.698 65.0496 141.152 64.7703 141.826 64.7703C142.327 64.7742 142.82 64.8958 143.266 65.1254V64.1525C142.784 63.9599 142.271 63.8595 141.752 63.8566C140.549 63.8566 139.686 64.4825 139.686 65.5201C139.686 66.4838 140.262 66.945 141.349 67.332C142.254 67.6531 142.59 67.9084 142.59 68.3775C142.59 68.6986 142.335 68.9129 141.916 69.0117C141.722 69.0603 141.523 69.0824 141.323 69.0776C140.772 69.0508 140.234 68.9049 139.744 68.6501V69.6631C140.296 69.8841 140.885 69.9984 141.48 70Z" fill="#102641"/>
</g>
<defs>
<clipPath id="clip0_5_18">
<rect width="150" height="70" fill="white"/>
</clipPath>
</defs>
</svg>
