<svg width="150" height="29" viewBox="0 0 150 29" fill="none" xmlns="http://www.w3.org/2000/svg">
<g clip-path="url(#clip0_5_16)">
<path d="M23.0254 17.0206L20.8929 14.9215V11.3049C20.8758 10.639 20.3106 10.1163 19.634 10.1331C18.9832 10.15 18.4608 10.6642 18.4436 11.3049V12.5105L15.6432 9.75378C15.1637 9.28168 14.3929 9.28168 13.9133 9.75378L6.53119 17.0122C6.06017 17.4927 6.06874 18.2515 6.54832 18.7151C7.0279 19.1703 7.78153 19.1703 8.26111 18.7151L14.7697 12.3081L21.2783 18.7151C21.7665 19.1788 22.5372 19.1703 23.0082 18.6983C23.4793 18.2346 23.4793 17.4927 23.0254 17.0206ZM14.7783 0C6.65109 0 0.0654058 6.48285 0.0654058 14.4831C0.0654058 22.4834 6.65109 28.9663 14.7783 28.9663C22.9055 28.9663 29.4911 22.4834 29.4911 14.4831C29.4911 6.48285 22.9055 0 14.7783 0ZM14.7783 2.41105C21.5524 2.41105 27.0419 7.81483 27.0419 14.4831C27.0419 21.1515 21.5524 26.5552 14.7783 26.5552C8.00419 26.5552 2.5147 21.1515 2.5147 14.4831C2.5147 11.2797 3.80785 8.21105 6.10299 5.95174C8.39813 3.67558 11.524 2.40262 14.7783 2.41105ZM39.7936 28.9663C39.2198 28.9663 38.7573 28.511 38.7573 27.9462V1.02006C38.7573 0.455233 39.2284 0 39.8021 0C40.3759 0 40.8384 0.455233 40.8384 1.02006V27.9378C40.8384 28.5026 40.3759 28.9663 39.7936 28.9663ZM149.327 23.8154L149.858 22.6773C149.498 22.4497 149.104 22.2727 148.684 22.1546C148.256 22.0282 147.811 21.9608 147.357 21.9608C146.894 21.9523 146.432 22.0366 146.004 22.2052C145.644 22.3485 145.327 22.5846 145.096 22.8881C144.882 23.1916 144.771 23.5541 144.779 23.925C144.779 24.3549 144.882 24.7006 145.096 24.9619C145.293 25.2148 145.558 25.4172 145.858 25.552C146.235 25.7122 146.612 25.8387 147.006 25.9483C147.348 26.0494 147.614 26.1337 147.811 26.2096C147.991 26.277 148.162 26.3782 148.299 26.5131C148.564 26.7913 148.556 27.2212 148.273 27.4826C148.239 27.5078 148.213 27.5331 148.17 27.5584C147.956 27.7017 147.674 27.7692 147.305 27.7692C146.886 27.7608 146.475 27.668 146.089 27.4994C145.653 27.3224 145.259 27.0695 144.916 26.7491L144.359 27.8535C144.753 28.1907 145.207 28.4605 145.704 28.6459C146.209 28.8398 146.74 28.941 147.28 28.941C147.751 28.9494 148.213 28.8651 148.65 28.6965C149.027 28.5532 149.352 28.3087 149.583 27.9968C149.815 27.6849 149.935 27.3055 149.926 26.9177C149.926 26.4878 149.823 26.1337 149.609 25.8724C149.404 25.611 149.147 25.4087 148.847 25.2738C148.47 25.1137 148.093 24.9788 147.699 24.8692C147.434 24.7933 147.168 24.709 146.903 24.5994C146.723 24.5235 146.56 24.4224 146.423 24.2875C146.295 24.161 146.226 23.9924 146.235 23.8154C146.226 23.6131 146.338 23.4276 146.509 23.3265C146.689 23.2084 146.946 23.1494 147.263 23.1494C147.597 23.1578 147.931 23.2169 148.247 23.3265C148.624 23.4445 148.993 23.6047 149.327 23.8154ZM138.459 28.8651H143.64V27.727H139.778V26.0157H143.135V24.8776H139.778V23.2H143.52V22.0619H138.459V28.8651ZM135.778 27.3645C135.547 27.4994 135.29 27.609 135.033 27.6765C134.794 27.7523 134.537 27.786 134.288 27.786C133.869 27.7945 133.449 27.6849 133.081 27.4741C132.721 27.2718 132.43 26.9852 132.216 26.6311C131.556 25.5352 131.925 24.1189 133.038 23.4698C133.046 23.4613 133.055 23.4613 133.072 23.4529C133.44 23.2506 133.851 23.141 134.271 23.1494C134.631 23.1494 134.982 23.2169 135.316 23.3517C135.658 23.4866 135.967 23.6805 136.232 23.925L136.986 22.964C136.618 22.652 136.198 22.4076 135.744 22.2474C135.273 22.0788 134.785 21.986 134.28 21.986C133.62 21.9776 132.969 22.1378 132.387 22.4497C131.839 22.7448 131.368 23.1747 131.043 23.6974C130.717 24.2285 130.546 24.8355 130.546 25.4593C130.537 26.0831 130.709 26.6901 131.025 27.2297C131.342 27.7608 131.796 28.1907 132.344 28.4942C132.909 28.8061 133.543 28.9663 134.194 28.9578C134.691 28.9578 135.179 28.8735 135.641 28.7134C136.104 28.5616 136.532 28.3509 136.926 28.0642V25.4846H135.77L135.778 27.3645ZM127.437 22.0703H126.067L123.035 28.8735H124.405L125.013 27.432H128.388L128.996 28.8735H130.417L127.437 22.0703ZM125.493 26.3108L126.718 23.4529L127.925 26.3108H125.493ZM118.025 23.2253H120.175V28.8651H121.502V23.2253H123.652V22.0703H118.017V23.2253H118.025ZM112.022 23.2253H114.172V28.8651H115.507V23.2253H117.657V22.0703H112.022V23.2253ZM111.303 23.689C110.986 23.1578 110.523 22.7279 109.975 22.4328C108.802 21.8259 107.406 21.8259 106.233 22.4328C104.529 23.3686 103.92 25.493 104.871 27.1706C104.88 27.1875 104.897 27.2128 104.905 27.2297C105.222 27.7608 105.685 28.1991 106.233 28.4942C107.397 29.118 108.802 29.118 109.975 28.4942C110.523 28.1991 110.986 27.7608 111.303 27.2297C111.945 26.1337 111.945 24.7849 111.303 23.689ZM110.121 26.6311C109.924 26.9767 109.633 27.2718 109.282 27.4741C108.93 27.6765 108.536 27.786 108.125 27.786C107.714 27.786 107.312 27.6849 106.961 27.4741C106.61 27.2718 106.31 26.9767 106.104 26.6311C105.445 25.5352 105.813 24.1105 106.935 23.4613C107.295 23.2506 107.714 23.141 108.134 23.141C108.536 23.141 108.939 23.2422 109.29 23.4445C109.641 23.6468 109.932 23.9334 110.129 24.2791C110.335 24.6331 110.446 25.0378 110.438 25.4509C110.438 25.8724 110.335 26.277 110.121 26.6311ZM103.244 24.0262L104.015 23.0735C103.672 22.7279 103.261 22.4497 102.799 22.2642C101.728 21.8259 100.512 21.8849 99.5015 22.4328C98.9534 22.7279 98.4995 23.1578 98.1826 23.689C97.8572 24.2201 97.6945 24.8355 97.703 25.4593C97.6945 26.0831 97.8572 26.6901 98.174 27.2297C98.4824 27.7608 98.9362 28.1907 99.4758 28.4942C100.032 28.8061 100.658 28.9663 101.3 28.9578C101.805 28.9578 102.302 28.8483 102.764 28.6459C103.235 28.4436 103.664 28.1485 104.023 27.786L103.244 26.9346C102.987 27.1875 102.687 27.3814 102.362 27.5247C102.054 27.6596 101.711 27.7355 101.368 27.7355C100.957 27.7355 100.546 27.6343 100.195 27.432C99.844 27.2296 99.5528 26.943 99.3559 26.5974C98.9448 25.8724 98.9448 24.9956 99.3559 24.2791C99.5528 23.9334 99.844 23.6468 100.195 23.4529C100.872 23.0735 101.685 23.0483 102.379 23.3855C102.713 23.5288 103.004 23.748 103.244 24.0262ZM92.6503 22.0703L90.7919 25.2654L88.9079 22.0703H87.5633L90.1411 26.6901V28.8651H91.4599V26.6395L93.9777 22.0619H92.6503V22.0703ZM85.1055 22.0703H83.7352L80.7036 28.8735H82.0738L82.6819 27.432H86.0561L86.6641 28.8735H88.0857L85.1055 22.0703ZM83.1614 26.3108L84.3861 23.4529L85.5936 26.3108H83.1614ZM80.1212 23.7058C79.8129 23.1916 79.3676 22.7701 78.8366 22.5003C78.2629 22.2052 77.6291 22.0535 76.9783 22.0703H74.1093V28.8735H76.9354C77.5949 28.882 78.2372 28.7302 78.8195 28.4352C79.359 28.157 79.8044 27.7355 80.1127 27.2297C80.4295 26.6985 80.5923 26.0916 80.5837 25.4762C80.5923 24.8523 80.4295 24.2453 80.1212 23.7058ZM78.948 26.6395C78.7681 26.9767 78.4855 27.2465 78.1515 27.432C77.8004 27.6259 77.4065 27.727 77.0125 27.7186H75.4282V23.2084H76.9611C77.3636 23.2 77.7662 23.3012 78.1173 23.4951C78.4598 23.6805 78.7424 23.9671 78.9309 24.3044C79.3248 25.0378 79.3334 25.9061 78.948 26.6395ZM71.0863 22.0619H72.4051V28.8651H71.0863V22.0619ZM65.7509 28.8651H70.05V27.6933H67.0698V22.0703H65.7509V28.8651ZM64.1066 23.689C63.7898 23.1578 63.3273 22.7279 62.7792 22.4328C61.606 21.8259 60.21 21.8259 59.0368 22.4328C57.3326 23.3686 56.7245 25.493 57.6751 27.1706C57.6837 27.1875 57.7008 27.2128 57.7094 27.2297C58.0262 27.7608 58.4887 28.1991 59.0368 28.4942C60.2015 29.118 61.606 29.118 62.7792 28.4942C63.3273 28.1991 63.7898 27.7608 64.1066 27.2297C64.7489 26.1337 64.7489 24.7849 64.1066 23.689ZM62.9248 26.6311C62.7279 26.9767 62.4367 27.2718 62.0856 27.4741C61.7344 27.6765 61.3405 27.786 60.9294 27.786C60.5184 27.786 60.1158 27.6849 59.7562 27.4741C59.405 27.2718 59.1053 26.9767 58.8998 26.6311C58.2403 25.5352 58.6086 24.1105 59.7305 23.4613C60.0902 23.2506 60.5098 23.141 60.9294 23.141C61.3319 23.141 61.7344 23.2422 62.0856 23.4445C62.4367 23.6468 62.7279 23.9334 62.9248 24.2791C63.1304 24.6331 63.2417 25.0378 63.2331 25.4509C63.2417 25.8724 63.1304 26.277 62.9248 26.6311ZM49.9761 28.8651H51.295V26.1084H54.7377V28.8651H56.0565V22.0619H54.7377V24.9619H51.295V22.0619H49.9761V28.8651ZM147.922 6.14564L149.935 1.97267C148.975 1.37413 147.845 0.902035 146.552 0.539535C145.276 0.185465 143.966 0 142.638 0C141.199 0 139.94 0.219186 138.861 0.657558C137.774 1.09593 136.943 1.7282 136.352 2.55436C135.761 3.38052 135.47 4.34157 135.47 5.4375C135.47 6.56715 135.761 7.46919 136.335 8.1436C136.883 8.80116 137.585 9.31541 138.382 9.64419C139.35 10.0235 140.334 10.327 141.345 10.5715C142.313 10.8076 143.032 11.0352 143.486 11.2459C143.94 11.4567 144.171 11.7517 144.171 12.1311C144.171 12.443 144.051 12.6791 143.811 12.8224C143.572 12.9657 143.246 13.0416 142.826 13.0416C141.962 13.0416 140.9 12.7887 139.624 12.2744C138.348 11.7602 137.286 11.1448 136.438 10.4282L134.382 14.5506C135.487 15.3852 136.789 16.0427 138.296 16.5148C139.743 16.9869 141.259 17.223 142.784 17.2314C144.094 17.2314 145.276 17.0375 146.346 16.6413C147.417 16.2451 148.265 15.6465 148.898 14.8372C149.524 14.0279 149.84 13.0247 149.84 11.836C149.84 10.6727 149.549 9.73692 148.958 9.02035C148.41 8.3375 147.699 7.79797 146.886 7.45233C145.918 7.06453 144.916 6.72732 143.906 6.46599C142.946 6.21308 142.253 5.98546 141.816 5.78314C141.379 5.58081 141.157 5.28576 141.148 4.91483C141.148 4.42587 141.491 4.1814 142.176 4.1814C142.878 4.1814 143.786 4.37529 144.908 4.77151C145.935 5.15087 146.946 5.6061 147.922 6.14564ZM114.771 16.9363H129.176V12.7887H120.32V10.7401H128.165V6.59244H120.32V4.56919H128.961V0.421512H114.771V16.9363ZM103.141 7.02238L109.153 0.421512H102.764L97.763 6.44913V0.421512H92.2135V16.9363H97.763V12.932L99.3387 11.1869L102.884 16.9363H109.513L103.141 7.02238ZM81.6542 0.421512L78.3999 6.77791L75.0257 0.421512H69.5019L75.6252 11.9203V16.9363H81.1746V11.8023L87.1779 0.421512H81.6542ZM63.5414 6.14564L65.554 1.97267C64.5948 1.37413 63.4644 0.902035 62.1712 0.539535C60.8952 0.185465 59.5763 0 58.2489 0C56.8102 0 55.5513 0.219186 54.4636 0.657558C53.376 1.09593 52.5367 1.7282 51.9544 2.55436C51.3635 3.38052 51.0723 4.34157 51.0723 5.4375C51.0723 6.56715 51.3635 7.46919 51.9373 8.1436C52.4854 8.80116 53.1876 9.31541 53.984 9.64419C54.9432 10.0235 55.9366 10.327 56.9386 10.5715C57.9063 10.8076 58.6257 11.0352 59.0796 11.2459C59.5335 11.4567 59.7647 11.7517 59.7647 12.1311C59.7647 12.443 59.6448 12.6791 59.405 12.8224C59.1652 12.9657 58.8398 13.0416 58.4287 13.0416C57.5638 13.0416 56.5019 12.7887 55.2258 12.2744C53.9498 11.7602 52.8879 11.1448 52.04 10.4282L49.9847 14.5506C51.0894 15.3852 52.3912 16.0427 53.8984 16.5148C55.3457 16.9869 56.8615 17.223 58.3859 17.2314C59.6962 17.2314 60.8866 17.0375 61.9485 16.6413C63.019 16.2451 63.8669 15.6465 64.5006 14.8372C65.1258 14.0279 65.4426 13.0247 65.4426 11.836C65.4426 10.6727 65.1514 9.73692 64.5605 9.02035C64.0124 8.3375 63.3016 7.79797 62.4881 7.45233C61.5203 7.06453 60.5183 6.72732 59.5078 6.46599C58.5486 6.21308 57.855 5.98546 57.4182 5.78314C56.9814 5.58081 56.7588 5.29419 56.7588 4.91483C56.7588 4.42587 57.1013 4.1814 57.7864 4.1814C58.4887 4.1814 59.3965 4.37529 60.5098 4.77151C61.5546 5.15087 62.5737 5.6061 63.5414 6.14564Z" fill="#666666"/>
</g>
<defs>
<clipPath id="clip0_5_16">
<rect width="150" height="29" fill="white"/>
</clipPath>
</defs>
</svg>
